<?xml version="1.0" standalone="no"?>
<!DOCTYPE svg PUBLIC "-//W3C//DTD SVG 20010904//EN"
 "http://www.w3.org/TR/2001/REC-SVG-20010904/DTD/svg10.dtd">
<svg version="1.0" xmlns="http://www.w3.org/2000/svg"
 width="40" height="40" viewBox="0 0 229.000000 229.000000"
 preserveAspectRatio="xMidYMid meet">

<g transform="translate(0.000000,229.000000) scale(0.100000,-0.100000)"
fill="#000000" stroke="none">
<path d="M1931 2244 c-11 -15 -19 -30 -16 -34 6 -9 -28 -174 -51 -250 -44
-143 -111 -263 -209 -376 -45 -51 -165 -154 -179 -154 -4 0 -19 -11 -34 -25
-15 -14 -36 -28 -47 -31 -11 -4 -22 -10 -25 -14 -7 -10 -114 -60 -128 -60 -7
0 -12 -4 -12 -8 0 -4 -20 -14 -45 -21 -25 -7 -45 -17 -45 -22 0 -5 -7 -9 -15
-9 -15 0 -135 -44 -167 -61 -10 -5 -25 -9 -33 -9 -8 0 -15 -4 -15 -10 0 -5 -7
-10 -15 -10 -8 0 -23 -4 -33 -9 -9 -5 -53 -26 -97 -47 -44 -22 -81 -42 -83
-46 -2 -5 -10 -8 -18 -8 -16 0 -200 -122 -226 -150 -9 -10 -25 -24 -35 -32
-35 -25 -103 -116 -132 -174 -65 -131 -83 -299 -42 -387 27 -58 117 -153 154
-162 88 -23 163 2 237 77 56 56 110 177 105 233 -16 169 -150 230 -245 112
-21 -26 -25 -42 -25 -98 0 -56 4 -71 23 -92 41 -43 69 -26 35 23 -18 25 -19
90 -3 121 21 39 102 44 132 8 23 -27 39 -86 30 -108 -15 -37 -68 -111 -79
-111 -7 0 -13 -4 -13 -10 0 -5 -16 -16 -35 -24 -81 -34 -167 48 -167 159 0 68
3 84 28 136 12 24 39 79 59 123 28 58 56 97 109 150 73 73 214 176 241 176 8
0 15 4 15 8 0 5 28 21 63 36 34 15 79 36 100 47 22 10 45 19 53 19 8 0 14 5
14 11 0 5 4 8 8 5 5 -3 19 1 33 8 13 7 29 14 34 16 17 5 79 30 105 42 14 6 39
17 55 24 213 91 312 154 426 269 40 40 120 153 125 175 0 3 9 23 18 44 19 43
20 44 37 121 6 28 15 54 20 60 5 5 9 30 9 56 0 26 4 51 10 54 10 6 7 -276 -3
-305 -3 -8 -8 -33 -11 -55 -15 -115 -83 -283 -144 -356 -27 -33 -155 -162
-181 -182 -83 -66 -173 -125 -262 -172 -11 -5 -19 -13 -19 -17 0 -5 -6 -8 -13
-8 -16 0 -57 -42 -57 -58 0 -15 66 -16 75 -2 3 6 17 10 31 10 13 0 24 4 24 10
0 5 3 9 8 7 11 -3 122 46 122 55 0 5 6 8 14 8 21 0 81 33 119 65 7 6 27 21 46
34 30 22 62 52 114 112 10 11 33 44 52 74 34 53 55 75 55 58 0 -5 -4 -13 -9
-18 -5 -6 -14 -28 -20 -50 -15 -50 -33 -87 -47 -100 -6 -5 -20 -25 -30 -42
-24 -42 -9 -63 32 -44 15 6 28 10 30 8 7 -6 -18 -70 -43 -109 -13 -21 -23 -42
-23 -48 0 -5 -4 -10 -9 -10 -5 0 -12 -8 -15 -17 -7 -22 -113 -133 -126 -133
-6 0 -10 -4 -10 -9 0 -25 -199 -118 -301 -140 -26 -6 -58 -15 -72 -20 -14 -6
-50 -13 -79 -16 -29 -3 -80 -12 -113 -20 -33 -7 -87 -16 -120 -20 -111 -12
-170 -29 -173 -52 -3 -18 5 -22 63 -33 66 -12 295 -9 342 5 16 5 21 3 19 -9
-1 -8 -5 -19 -9 -22 -4 -4 -7 -14 -7 -22 0 -32 -54 -129 -94 -168 -110 -109
-253 -136 -463 -86 -79 19 -93 19 -93 0 0 -18 109 -54 186 -62 11 -1 25 -5 31
-9 14 -9 137 -1 195 12 70 16 168 64 208 102 36 35 84 99 73 99 -3 0 0 6 6 14
16 19 41 106 41 144 0 20 5 32 14 32 32 0 255 84 266 100 3 4 32 22 65 41 55
31 112 74 139 107 6 7 19 21 29 30 23 21 100 132 92 132 -4 0 2 12 13 28 11
15 20 32 21 37 1 6 6 27 12 47 5 20 11 54 14 75 10 95 15 121 30 163 39 109
52 185 48 286 -2 54 -3 137 -2 184 6 269 1 363 -27 508 -19 99 -29 109 -63 66z"/>
</g>
</svg>
